<svg width="171" height="28" viewBox="0 0 171 28" fill="none" xmlns="http://www.w3.org/2000/svg">
<g clip-path="url(#clip0_1_36228)">
<path d="M42.9234 18.4394C42.9234 16.3669 41.8253 15.2433 40.0033 14.7939C41.5507 14.2944 42.4243 13.2957 42.4243 11.5977V10.6239C42.4243 7.82731 40.1032 6.67871 36.4841 6.67871H31.168V23.4583H37.1081C40.6272 23.4583 42.9234 22.2848 42.9234 19.3882V18.4394ZM39.9784 18.8639C39.9784 20.6117 38.5058 20.9863 36.6339 20.9863H34.1131V15.9674H36.6089C38.4309 15.9674 39.9784 16.242 39.9784 18.1397V18.8639ZM39.4792 11.9224C39.4792 13.5703 37.9567 13.795 36.0349 13.795H34.1131V9.12572H36.0599C37.9817 9.12572 39.4792 9.42534 39.4792 11.1483V11.9224Z" fill="#18385A"/>
<path d="M59.4547 23.4582C59.5795 22.7841 59.5795 21.7103 59.4547 21.0362H52.5662V6.67867C51.7177 6.57879 50.5196 6.57879 49.6211 6.67867V23.4582H59.4547Z" fill="#18385A"/>
<path d="M74.955 18.6641C74.955 20.8864 73.3326 21.211 71.4858 21.211C69.6138 21.211 67.9915 20.8864 67.9915 18.6641V6.67867C67.2428 6.57879 65.8451 6.57879 65.0464 6.67867V19.1635C65.0464 22.5843 67.5922 23.7579 71.4858 23.7579C75.3044 23.7579 77.8501 22.5843 77.8501 19.1635V6.67867C77.2512 6.57879 75.7038 6.57879 74.955 6.67867V18.6641Z" fill="#18385A"/>
<path d="M94.9268 23.4583C95.0515 22.7841 95.0515 21.7104 94.9268 21.0362H87.9139V16.1672H94.6774C94.8021 15.493 94.8021 14.4692 94.6774 13.7701H87.9139V9.10076H94.9268C95.0515 8.40161 95.0515 7.37786 94.9268 6.67871H84.9683V23.4583H94.9268Z" fill="#18385A"/>
<path d="M113.399 18.4394C113.399 16.3669 112.301 15.2433 110.478 14.7939C112.026 14.2944 112.9 13.2957 112.9 11.5977V10.6239C112.9 7.82731 110.578 6.67871 106.959 6.67871H101.643V23.4583H107.584C111.103 23.4583 113.399 22.2848 113.399 19.3882V18.4394ZM110.454 18.8639C110.454 20.6117 108.981 20.9863 107.109 20.9863H104.589V15.9674H107.084C108.906 15.9674 110.454 16.242 110.454 18.1397V18.8639ZM109.955 11.9224C109.955 13.5703 108.432 13.795 106.51 13.795H104.589V9.12572H106.535C108.457 9.12572 109.955 9.42534 109.955 11.1483V11.9224Z" fill="#18385A"/>
<path d="M129.842 23.4582C130.716 23.5581 132.039 23.5581 132.913 23.4582L126.997 6.67867C126.098 6.57879 125.001 6.57879 124.102 6.67867L118.187 23.4582C119.035 23.5581 120.333 23.5581 121.206 23.4582L122.53 19.3383H128.495L129.842 23.4582ZM127.721 16.9411H123.304L125.525 10.0995L127.721 16.9411Z" fill="#18385A"/>
<path d="M148.477 23.4582C149.575 23.5581 150.748 23.5581 151.821 23.4582V6.67867C150.847 6.57879 149.924 6.57879 148.876 6.67867V18.9387L142.087 6.67867C141.089 6.57879 139.891 6.57879 138.867 6.67867V23.4582C139.816 23.5831 140.889 23.5831 141.813 23.4582V11.4478L148.477 23.4582Z" fill="#18385A"/>
<path d="M158.799 19.1135C158.799 22.6343 161.394 23.7579 165.388 23.7579C166.785 23.7579 168.557 23.5082 170.255 22.9839C170.255 22.1848 170.155 21.3108 169.955 20.6117C168.682 20.9114 167.309 21.211 165.837 21.211C163.566 21.211 161.744 20.9364 161.744 18.4893V11.5478C161.744 9.07577 163.566 8.82606 165.837 8.82606C167.259 8.82606 168.507 8.92596 169.905 9.15064C170.03 8.47649 170.03 7.45274 169.905 6.75359C168.283 6.42899 166.86 6.3291 165.388 6.3291C161.394 6.3291 158.799 7.45274 158.799 10.9735V19.1135Z" fill="#18385A"/>
<path d="M11.0917 18.0047L8.63913 16.5881V1.03271L6.80176 2.09391V17.6493L11.0917 20.1274L15.3819 17.6493V12.6935L11.0917 10.2154L9.79774 10.963V13.0856L11.0917 12.338L13.5445 13.755V16.5881L11.0917 18.0047Z" fill="#18385A"/>
<path d="M11.0921 21.4655L5.64352 18.3183V2.76294L3.80615 3.82413V19.3796L11.0921 23.5879L18.378 19.3796V10.9627L11.0921 6.7544L9.79788 7.50197V9.62461L11.0921 8.87703L16.5403 12.0242V18.3183L11.0921 21.4655Z" fill="#329CDE"/>
<path d="M0.810059 21.1105L11.092 27.0493L21.3737 21.1105V9.23272L11.092 3.29419L9.79783 4.04147V6.16414L11.092 5.41657L19.5363 10.2942V20.0494L11.092 24.9267L2.64743 20.0494V4.49395L0.810059 5.55514V21.1105Z" fill="#18385A"/>
</g>
<defs>
<clipPath id="clip0_1_36228">
<rect width="169.846" height="27.0889" fill="white" transform="translate(0.810059 0.609375)"/>
</clipPath>
</defs>
</svg>
