<svg width="38" height="38" viewBox="0 0 38 38" fill="none" xmlns="http://www.w3.org/2000/svg">
<path d="M13.5915 15.865C13.5915 17.5453 12.2253 18.9104 10.545 18.9104C8.86469 18.9104 7.505 17.5447 7.505 15.865C7.505 14.1847 8.86469 12.8191 10.545 12.8191C12.2253 12.8191 13.5915 14.1847 13.5915 15.865Z" fill="#3F56B6"/>
<path d="M19 17.9907C21.5414 17.9907 23.6016 15.9305 23.6016 13.3892C23.6016 10.8478 21.5414 8.7876 19 8.7876C16.4586 8.7876 14.3984 10.8478 14.3984 13.3892C14.3984 15.9305 16.4586 17.9907 19 17.9907Z" fill="#3F56B6"/>
<path d="M27.455 12.8191C29.1353 12.8191 30.5009 14.1847 30.5009 15.865C30.5009 17.5453 29.1353 18.9104 27.455 18.9104C25.7747 18.9104 24.415 17.5447 24.415 15.865C24.415 14.1847 25.7747 12.8191 27.455 12.8191Z" fill="#3F56B6"/>
<path d="M33.8438 23.12V25.1274C33.8438 25.3768 33.6894 25.6024 33.4578 25.6844C32.1997 26.1421 30.8988 26.4503 29.5688 26.6118V26.5999V23.7862C29.5753 22.4027 29.0593 21.0733 28.1319 20.0449C28.6781 19.9571 29.2006 19.7605 29.6703 19.469C31.5103 19.9078 33.8319 20.9177 33.8438 23.12Z" fill="#3F56B6"/>
<path d="M28.3812 23.7863V26.6001C28.3812 27.0994 28.0665 27.5507 27.5981 27.7163C22.0412 29.7113 15.96 29.7113 10.4031 27.7163C9.93401 27.5507 9.61932 27.0994 9.61932 26.6001V23.7863C9.62526 20.456 13.1521 18.936 15.9249 18.2876C17.8071 19.4751 20.1999 19.4692 22.0821 18.2876C24.8538 18.9467 28.3688 20.4483 28.3812 23.7863V23.7863Z" fill="#3F56B6"/>
<path d="M9.86813 20.0449C8.94188 21.0721 8.43125 22.4027 8.43125 23.7862V26.5999V26.6124C7.10719 26.4515 5.80094 26.1439 4.54812 25.6856C4.31062 25.6024 4.15625 25.3768 4.15625 25.1274V23.12C4.16219 20.9177 6.49563 19.9078 8.33031 19.469C8.79938 19.7593 9.32188 19.9553 9.86813 20.0449Z" fill="#3F56B6"/>
</svg>
