<svg width="24" height="24" viewBox="0 0 24 24" fill="none" xmlns="http://www.w3.org/2000/svg">
<g clip-path="url(#clip0_1351_6924)">
<path d="M22.3635 19.6364H18.5454C16.1393 19.6364 14.1818 17.6789 14.1818 15.2728C14.1818 12.8668 16.1393 10.9093 18.5454 10.9093H22.3635C22.665 10.9093 22.909 10.6653 22.909 10.3638V8.7275C22.909 7.5837 22.0218 6.6535 20.9008 6.56329L17.7682 1.09179C17.4779 0.585754 17.0092 0.224073 16.4483 0.0738875C15.89 -0.0752748 15.3063 0.00306481 14.8066 0.293873L4.06801 6.5457H2.18198C0.978713 6.5457 0.000183105 7.52418 0.000183105 8.7275V21.8182C0.000183105 23.0215 0.978661 24 2.18198 24H20.7272C21.9304 24 22.909 23.0215 22.909 21.8182V20.1819C22.909 19.8804 22.665 19.6364 22.3635 19.6364ZM18.4447 4.4698L19.6332 6.5457H14.8791L18.4447 4.4698ZM6.23616 6.5457L15.3558 1.23666C15.6024 1.0923 15.8905 1.05395 16.166 1.12748C16.4446 1.20204 16.6768 1.38209 16.8212 1.63403L16.8223 1.63603L8.38953 6.5457H6.23616Z" fill="#3F56B6"/>
<path d="M22.3635 12.0002H18.5454C16.7407 12.0002 15.2727 13.4682 15.2727 15.2729C15.2727 17.0776 16.7407 18.5456 18.5454 18.5456H22.3635C23.2659 18.5456 23.9999 17.8116 23.9999 16.9093V13.6366C23.9999 12.7342 23.2659 12.0002 22.3635 12.0002ZM18.5454 16.3638C17.944 16.3638 17.4545 15.8743 17.4545 15.2729C17.4545 14.6716 17.944 14.182 18.5454 14.182C19.1467 14.182 19.6363 14.6716 19.6363 15.2729C19.6363 15.8743 19.1468 16.3638 18.5454 16.3638Z" fill="#3F56B6"/>
</g>
<defs>
<clipPath id="clip0_1351_6924">
<rect width="24" height="24" fill="white"/>
</clipPath>
</defs>
</svg>
