<svg width="29" height="29" viewBox="0 0 29 29" fill="none" xmlns="http://www.w3.org/2000/svg">
<path d="M20.9742 5.21094H19.3738C19.2574 4.80992 19.0521 4.43791 18.7485 4.13431C18.333 3.7188 17.7956 3.47909 17.2188 3.42245V2.94531C17.2188 1.44592 15.9994 0.226562 14.5 0.226562C13.0006 0.226562 11.7812 1.44592 11.7812 2.94531V3.42245C11.2044 3.47909 10.667 3.7188 10.2515 4.13431C9.94791 4.43791 9.74309 4.80947 9.62664 5.21048H8.0262C5.34914 5.21094 3.17188 7.3882 3.17188 10.0648V23.92C3.17188 26.5962 5.34914 28.7734 8.02575 28.7734H20.9742C23.6509 28.7734 25.8281 26.5962 25.8281 23.92V10.0648C25.8281 7.3882 23.6509 5.21094 20.9742 5.21094ZM13.5938 2.94531C13.5938 2.44552 14.0002 2.03906 14.5 2.03906C14.9998 2.03906 15.4062 2.44552 15.4062 2.94531V3.39844H13.5938V2.94531ZM11.6648 21.8166L10.0625 23.4184C9.88538 23.5951 9.65383 23.6835 9.42183 23.6835C9.18983 23.6835 8.95828 23.5951 8.78111 23.4184L7.81958 22.4573C7.46569 22.1034 7.46569 21.5298 7.81958 21.1754C8.17347 20.8215 8.74713 20.8215 9.10147 21.1754L9.42228 21.4962L10.3838 20.5347C10.7377 20.1813 11.3114 20.1808 11.6657 20.5347C12.0187 20.8891 12.0187 21.4627 11.6648 21.8166V21.8166ZM11.6648 17.2854L10.0625 18.8872C9.88538 19.0639 9.65383 19.1522 9.42183 19.1522C9.18983 19.1522 8.95828 19.0639 8.78111 18.8872L7.81958 17.9261C7.46569 17.5722 7.46569 16.9985 7.81958 16.6442C8.17347 16.2903 8.74713 16.2903 9.10147 16.6442L9.42228 16.965L10.3838 16.0035C10.7377 15.65 11.3114 15.6496 11.6657 16.0035C12.0187 16.3578 12.0187 16.9315 11.6648 17.2854V17.2854ZM11.6648 12.7541L10.0625 14.3559C9.88538 14.5326 9.65383 14.621 9.42183 14.621C9.18983 14.621 8.95828 14.5326 8.78111 14.3559L7.81958 13.3948C7.46569 13.0409 7.46569 12.4673 7.81958 12.1129C8.17347 11.759 8.74713 11.759 9.10147 12.1129L9.42228 12.4338L10.3838 11.4722C10.7377 11.1188 11.3114 11.1183 11.6657 11.4722C12.0187 11.8266 12.0187 12.4002 11.6648 12.7541V12.7541ZM11.5329 6.81817C11.4029 6.68812 11.3281 6.50823 11.3281 6.32381V5.91102C11.3281 5.72659 11.4029 5.54625 11.5329 5.4162C11.6634 5.2857 11.8438 5.21094 12.0278 5.21094H16.9723C17.1562 5.21094 17.3366 5.2857 17.4666 5.41575C17.5971 5.54625 17.6719 5.72659 17.6719 5.91102V6.32381C17.6719 6.50823 17.5971 6.68813 17.4666 6.81863C17.3343 6.95048 17.1589 7.02344 16.9723 7.02344H12.0278C11.8406 7.02344 11.6652 6.95048 11.5329 6.81817V6.81817ZM19.9375 23.0822H14.0469C13.5466 23.0822 13.1406 22.6762 13.1406 22.1759C13.1406 21.6757 13.5466 21.2697 14.0469 21.2697H19.9375C20.4377 21.2697 20.8438 21.6757 20.8438 22.1759C20.8438 22.6762 20.4377 23.0822 19.9375 23.0822ZM19.9375 18.5509H14.0469C13.5466 18.5509 13.1406 18.1449 13.1406 17.6447C13.1406 17.1444 13.5466 16.7384 14.0469 16.7384H19.9375C20.4377 16.7384 20.8438 17.1444 20.8438 17.6447C20.8438 18.1449 20.4377 18.5509 19.9375 18.5509ZM19.9375 14.0197H14.0469C13.5466 14.0197 13.1406 13.6137 13.1406 13.1134C13.1406 12.6132 13.5466 12.2072 14.0469 12.2072H19.9375C20.4377 12.2072 20.8438 12.6132 20.8438 13.1134C20.8438 13.6137 20.4377 14.0197 19.9375 14.0197Z" fill="#3F56B6"/>
</svg>
