<svg width="793" height="805" viewBox="0 0 793 805" fill="none" xmlns="http://www.w3.org/2000/svg">
<path d="M45.3519 122.305C30.6812 142.275 22.1131 164.803 24.8595 189.871C30.2338 238.937 78.7339 275.32 83.0903 324.491C89.2675 394.287 5.87186 443.985 1.19514 513.894C-2.10839 563.25 37.0032 607.494 82.7219 626.385C134.214 647.663 196.946 629.145 243.441 657.1C297.842 689.806 295.824 780.84 357.042 801.218C392.056 812.875 430.492 787.469 447.317 754.622C464.142 721.776 465.234 683.489 468.178 646.702C471.995 598.961 474.461 558.92 521.873 533.211C554.434 515.557 592.256 510.849 627.279 498.794C689.568 477.345 743.034 431.35 773.547 372.956C797.733 326.659 802.836 260.25 759.929 230.461C734.255 212.636 699.711 214.404 669.479 222.327C611.875 237.428 548.529 265.063 490.553 231.843C441.048 203.48 439.052 137.936 412.65 91.6338C389.863 51.6799 354.239 16.8546 309.709 5.34268C246.591 -10.9688 182.021 21.5488 126.089 55.0316C96.6336 72.668 65.3355 95.1129 45.3519 122.305V122.305Z" stroke="white" stroke-opacity="0.1" stroke-width="1.33333" stroke-miterlimit="10" stroke-linecap="round" stroke-linejoin="round"/>
<path d="M60.2885 129.363C46.4821 148.312 38.3439 169.642 40.612 193.319C43.7664 226.456 67.1367 253.783 81.8557 283.66C87.7608 295.619 92.271 307.996 93.5301 321.315C99.7335 387.329 22.7781 434.93 22.9755 500.408C23.0457 525.248 33.1977 546.75 46.9207 568.062C60.2621 588.783 78.2452 605.757 100.795 616.642C146.154 638.547 203.178 625.324 247.66 645.364C250.147 646.487 252.591 647.707 255 649.041C308.176 678.558 309.839 758.865 369.132 778.532C402.856 789.728 439.274 768.104 456.182 739.416C473.086 710.729 476.196 676.864 480.631 642.715C485.892 602.519 488.528 566.281 520.331 540.608C523.617 537.958 527.197 535.391 531.137 532.952C560.074 514.969 593.43 508.919 624.93 495.898C681.02 472.707 731.327 427.006 762.037 371.351C774.69 348.419 784.232 321.644 784.776 295.251C785.303 266.379 774.032 238.613 749.819 223.652C724.246 207.85 691.61 209.837 662.646 218.186C615.265 231.852 564.268 254.608 514.886 240.955C506.718 238.705 498.641 235.458 490.683 231.045C442.819 204.463 438.576 142.187 412.086 98.2585C389.493 60.7965 355.163 28.3885 312.594 17.7013C252.179 2.55246 190.364 32.7931 137.064 64.7843C108.898 81.6925 79.2805 103.242 60.2885 129.363V129.363Z" stroke="white" stroke-opacity="0.1" stroke-width="1.33421" stroke-miterlimit="10" stroke-linecap="round" stroke-linejoin="round"/>
<path d="M75.2285 136.418C62.282 154.349 54.5826 174.49 56.3682 196.768C58.8338 228.014 79.778 254.117 93.1808 282.511C98.5551 293.861 102.71 305.574 103.964 318.139C110.194 380.371 40.2542 426.12 44.751 486.922C46.6199 512.126 57.9607 531.548 70.3457 554.664C81.9848 576.39 96.6468 594.504 118.868 606.898C160.831 630.308 216.021 619.651 259.397 637.691C261.823 638.696 264.21 639.789 266.562 640.982C318.519 667.314 323.867 736.885 381.225 755.855C413.659 766.586 448.063 748.735 465.046 724.211C482.033 699.687 487.161 670.235 493.088 638.727C500.147 601.625 503.078 566.08 530.937 540.432C533.828 537.774 536.951 535.172 540.4 532.693C565.718 514.386 594.612 506.985 622.58 492.998C672.489 468.053 719.791 422.738 750.532 369.75C764.408 345.84 776.285 318.749 777.566 290.908C778.829 260.838 765.668 231.067 739.717 216.844C714.368 202.954 683.509 205.271 655.822 214.045C610.507 228.417 562.2 251.735 514.3 239.416C506.36 237.38 498.529 234.371 490.816 230.247C444.584 205.442 438.122 146.443 411.522 104.888C389.135 69.9089 356.086 39.9228 315.483 30.0648C257.765 16.0741 198.701 44.0421 148.038 74.5373C121.175 90.7084 93.2291 111.372 75.2285 136.418Z" stroke="white" stroke-opacity="0.1" stroke-width="1.33509" stroke-miterlimit="10" stroke-linecap="round" stroke-linejoin="round"/>
<path d="M90.1618 143.473C78.0796 160.39 70.8144 179.329 72.1218 200.216C73.9029 229.58 92.4124 254.455 104.503 281.361C109.342 292.097 113.142 303.152 114.405 314.958C120.661 373.413 58.3418 417.486 66.5326 473.436C70.2968 499.14 82.7651 516.285 93.7725 541.27C103.762 563.939 115.028 583.163 136.938 597.158C175.562 621.823 228.858 613.983 271.132 630.018C273.493 630.913 275.822 631.878 278.121 632.922C328.854 656.065 337.883 714.914 393.315 733.174C424.459 743.439 456.845 729.37 473.912 709.005C490.978 688.639 498.129 663.606 505.543 634.743C514.401 600.725 517.638 565.856 541.54 540.257C544.036 537.585 546.708 534.957 549.66 532.439C571.416 513.864 595.805 505.037 620.232 490.107C663.977 463.385 708.388 418.53 739.024 368.148C754.159 343.264 768.4 315.853 770.344 286.565C772.423 255.297 757.384 223.468 729.609 210.035C704.598 197.939 675.401 200.703 648.99 209.903C605.746 224.982 560.119 248.857 513.716 237.867C506.004 236.055 498.414 233.282 490.947 229.444C446.351 206.42 437.682 150.694 410.96 111.512C388.801 79.0165 357.011 51.4519 318.373 42.4187C263.35 29.595 207.045 55.2863 159.014 84.2855C133.446 99.7327 107.175 119.501 90.1618 143.473V143.473Z" stroke="white" stroke-opacity="0.1" stroke-width="1.33597" stroke-miterlimit="10" stroke-linecap="round" stroke-linejoin="round"/>
<path d="M105.095 150.536C93.9118 166.449 87.0415 184.173 87.8751 203.661C88.9719 231.137 105.051 254.789 115.821 280.217C120.13 290.329 123.573 300.731 124.846 311.787C131.124 366.451 77.0518 408.932 88.3093 459.941C94.1179 486.242 107.622 500.983 117.199 527.876C125.591 551.453 133.427 571.726 155.012 587.415C190.364 613.106 241.694 608.311 282.863 622.341C285.162 623.126 287.434 623.964 289.68 624.863C339.194 644.821 351.903 692.935 405.396 710.488C435.26 720.297 465.632 710.005 482.777 693.799C499.922 677.597 509.034 656.964 518.001 630.755C528.588 599.808 532.185 565.597 552.147 540.081C554.244 537.396 556.464 534.738 558.925 532.18C577.084 513.289 597.001 503.067 617.884 487.212C655.473 458.673 697.103 414.385 727.519 366.538C743.945 340.711 760.454 312.954 763.13 282.217C765.951 249.752 749.174 215.791 719.495 203.226C694.905 192.815 667.301 196.137 642.158 205.762C600.989 221.543 558.039 245.984 513.132 236.323C505.647 234.73 498.294 232.195 491.077 228.645C448.118 207.398 437.26 154.937 410.393 118.137C388.484 88.1202 357.931 62.9861 321.259 54.7821C268.933 43.1166 215.384 66.5353 169.985 94.0384C145.716 108.753 121.169 127.662 105.095 150.536V150.536Z" stroke="white" stroke-opacity="0.1" stroke-width="1.33687" stroke-miterlimit="10" stroke-linecap="round" stroke-linejoin="round"/>
<path d="M120.038 157.591C109.719 172.489 103.275 189.016 103.626 207.113C104.042 232.699 117.686 255.122 127.141 279.067C130.918 288.565 134.011 298.313 135.288 308.606C141.588 359.493 96.3474 400.376 110.092 446.455C118.13 473.396 132.546 485.65 140.627 514.478C147.48 538.936 151.867 560.188 173.083 577.671C205.267 604.191 254.535 602.642 294.599 614.668C296.832 615.339 299.048 616.05 301.237 616.804C349.526 633.572 365.921 670.959 417.488 687.806C446.061 697.151 474.416 690.636 491.644 678.593C508.868 666.55 519.994 650.326 530.453 626.772C542.833 598.9 546.729 565.303 562.751 539.906C564.453 537.203 566.222 534.518 568.187 531.926C582.748 512.705 598.204 501.075 615.538 484.316C646.98 453.926 685.917 410.291 716.017 364.937C733.776 338.171 752.505 310.058 755.914 277.869C759.476 244.207 741.028 208.012 709.392 196.417C685.272 187.577 659.199 191.569 635.332 201.62C596.23 218.107 555.969 243.101 512.549 234.779C505.292 233.401 498.181 231.106 491.21 227.847C449.887 208.381 436.866 159.175 409.832 124.762C388.195 97.2147 358.853 74.5154 324.151 67.1362C274.519 56.6377 223.724 77.7794 180.963 103.791C157.991 117.773 135.125 135.795 120.038 157.591V157.591Z" stroke="white" stroke-opacity="0.1" stroke-width="1.33775" stroke-miterlimit="10" stroke-linecap="round" stroke-linejoin="round"/>
<path d="M134.973 164.649C125.523 178.53 119.508 193.855 119.381 210.557C119.113 234.26 130.327 255.455 138.46 277.913C141.707 286.801 144.445 295.892 145.73 305.434C152.052 352.534 116.16 391.734 131.871 432.968C142.369 460.52 157.527 470.303 164.055 501.079C169.421 526.415 170.377 548.548 191.159 567.931C220.294 595.101 267.377 596.969 306.327 606.994C308.507 607.551 310.665 608.135 312.793 608.745C359.868 622.323 379.948 648.979 429.58 665.124C456.863 674.004 483.2 671.271 500.507 663.387C517.819 655.503 530.958 643.688 542.909 622.784C557.084 597.992 561.247 564.974 573.356 539.735C574.663 537.006 575.975 534.299 577.449 531.662C588.408 512.109 599.394 499.048 613.191 481.42C638.466 449.126 674.809 406.251 704.51 363.331C723.651 335.67 744.547 307.162 748.693 273.526C752.993 238.665 732.939 200.111 699.285 189.608C675.686 182.246 651.096 187.002 628.503 197.474C591.466 214.672 553.89 240.223 511.971 233.23C504.934 232.08 498.068 230.018 491.342 227.044C451.651 209.359 436.498 163.395 409.267 131.386C387.919 106.291 359.78 86.0489 327.038 79.4988C280.109 70.1629 232.069 89.0279 191.936 113.539C170.263 126.797 149.082 143.929 134.973 164.649V164.649Z" stroke="white" stroke-opacity="0.1" stroke-width="1.33863" stroke-miterlimit="10" stroke-linecap="round" stroke-linejoin="round"/>
<path d="M149.907 171.704C141.322 184.567 135.772 198.698 135.136 214.01C134.228 235.827 142.967 255.789 149.78 276.764C152.5 285.033 154.882 293.47 156.172 302.253C162.516 345.572 136.404 382.942 153.654 419.483C166.899 447.538 182.57 454.957 187.483 487.69C191.406 513.886 188.988 536.808 209.235 558.187C235.453 585.875 280.211 591.301 318.063 599.321C320.182 599.764 322.275 600.221 324.354 600.69C370.205 611.079 393.965 627.004 441.671 642.438C467.665 650.862 491.988 651.906 509.374 648.181C526.765 644.456 541.927 637.055 555.365 618.796C571.343 597.088 575.717 564.606 583.96 539.559C584.864 536.804 585.728 534.075 586.716 531.403C594.064 511.503 600.561 496.999 610.845 478.529C629.916 444.266 663.772 402.263 693.008 361.73C713.583 333.2 736.59 304.267 741.482 269.178C746.505 233.12 724.88 192.065 689.178 182.804C666.119 176.815 642.998 182.435 621.668 193.337C586.707 211.237 551.816 237.349 511.388 231.69C504.579 230.755 497.95 228.93 491.479 226.245C453.425 210.338 436.161 167.594 408.706 138.015C387.674 115.351 360.702 97.5788 329.926 91.8579C285.69 83.6846 240.41 100.272 202.913 123.296C182.539 135.813 163.025 152.059 149.907 171.704V171.704Z" stroke="white" stroke-opacity="0.1" stroke-width="1.33951" stroke-miterlimit="10" stroke-linecap="round" stroke-linejoin="round"/>
<path d="M164.844 178.759C157.119 190.604 152.008 203.542 150.889 217.458C149.296 237.389 155.605 256.122 161.098 275.619C163.287 283.274 165.314 291.048 166.612 299.077C172.983 338.614 156.965 373.909 175.435 405.992C191.751 434.346 207.672 439.615 210.905 474.291C213.432 501.369 207.729 524.972 227.309 548.443C250.754 576.561 293.051 585.633 329.793 591.644C331.851 591.981 333.891 592.306 335.913 592.631C380.54 599.83 407.985 605.029 453.761 619.757C478.465 627.719 500.77 632.541 518.239 632.975C535.709 633.409 552.902 630.431 567.819 614.812C585.609 596.189 590.123 564.224 594.563 539.384C595.059 536.598 595.48 533.847 595.976 531.149C599.7 510.898 601.688 494.929 608.492 475.634C621.285 439.374 652.789 398.319 681.499 360.12C703.558 330.774 728.564 301.358 734.259 264.835C739.954 227.566 716.846 183.852 679.068 175.995C656.558 171.305 634.89 177.859 614.84 189.196C581.945 207.802 549.739 234.471 510.803 230.146C504.222 229.426 497.835 227.842 491.609 225.447C455.187 211.32 435.862 171.757 408.139 144.635C387.458 124.393 361.626 109.112 332.816 104.212C291.278 97.2056 248.749 111.517 213.884 133.044C194.809 144.837 176.971 160.183 164.844 178.759V178.759Z" stroke="white" stroke-opacity="0.1" stroke-width="1.34039" stroke-miterlimit="10" stroke-linecap="round" stroke-linejoin="round"/>
<path d="M179.782 185.818C172.907 196.637 168.205 208.381 166.643 220.906C164.318 238.946 168.244 256.451 172.421 274.469C174.075 281.506 175.746 288.631 177.053 295.901C183.446 331.656 177.725 364.59 197.208 392.502C216.972 420.821 232.823 424.282 234.332 460.893C235.486 488.861 226.633 513.056 245.379 538.699C266.209 567.198 305.891 579.961 341.528 583.971C343.52 584.194 345.503 584.396 347.468 584.576C390.879 588.586 422.006 583.054 465.852 597.075C489.266 604.573 509.557 613.172 527.105 617.769C544.654 622.367 563.883 623.806 580.273 610.824C599.884 595.298 604.464 563.851 605.166 539.208C605.245 536.396 605.227 533.623 605.236 530.89C605.315 510.293 602.771 492.862 606.145 472.734C612.572 434.491 641.856 394.428 669.995 358.519C693.598 328.401 720.606 298.458 727.046 260.487C733.478 222.021 708.813 175.46 668.96 169.182C646.984 165.725 626.786 173.293 608.009 185.05C577.185 204.371 547.659 231.593 510.219 228.601C503.867 228.106 497.716 226.755 491.74 224.644C456.955 212.294 435.589 175.881 407.581 151.264C387.26 133.4 362.547 120.638 335.702 116.575C296.863 110.727 257.088 122.766 224.86 142.797C207.079 153.862 190.908 168.304 179.782 185.818Z" stroke="white" stroke-opacity="0.1" stroke-width="1.34127" stroke-miterlimit="10" stroke-linecap="round" stroke-linejoin="round"/>
<path d="M194.719 192.872C188.677 202.651 184.439 213.224 182.395 224.354C179.39 240.512 180.886 256.789 183.742 273.32C184.865 279.742 186.186 286.205 187.497 292.724C193.911 324.693 198.549 354.912 218.993 379.015C242.569 406.817 258.012 408.975 257.762 447.499C257.574 476.371 245.724 501.075 263.457 528.96C281.817 557.827 318.731 574.292 353.262 576.297C355.192 576.407 357.118 576.477 359.031 576.516C401.214 577.333 436.03 561.074 477.941 574.389C500.07 581.426 518.342 593.806 535.97 602.563C553.602 611.32 574.88 617.216 592.731 606.841C614.171 594.451 618.747 563.522 615.772 539.033C615.43 536.198 614.978 533.399 614.505 530.635C610.92 509.7 603.813 490.818 603.804 469.838C603.782 429.652 630.965 390.58 658.49 356.917C683.703 326.088 712.659 295.562 719.827 256.139C727 216.475 700.765 166.865 658.854 162.373C637.388 160.074 618.69 168.725 601.181 180.908C572.427 200.931 545.587 228.715 509.638 227.052C503.509 226.78 497.604 225.666 491.874 223.845C458.729 213.277 435.359 179.947 407.022 157.889C387.087 142.367 363.471 132.171 338.591 128.934C302.454 124.248 265.431 134.01 235.839 152.55C219.352 162.877 204.809 176.403 194.719 192.872V192.872Z" stroke="white" stroke-opacity="0.1" stroke-width="1.34215" stroke-miterlimit="10" stroke-linecap="round" stroke-linejoin="round"/>
<path d="M195.058 272.175C198.559 306.395 214.884 340.601 240.768 365.529C268.482 392.208 283.236 393.686 281.187 434.105C279.673 463.903 265.007 489.059 281.525 519.216C297.555 548.492 331.565 568.62 364.995 568.62C408.059 568.62 448.233 538.524 490.029 551.707C510.868 558.279 527.127 574.442 544.833 587.357C562.544 600.278 585.84 610.592 605.188 602.853C628.422 593.552 632.998 563.254 626.373 538.857C619.749 514.46 605.28 491.708 601.454 466.947C594.952 424.883 620.091 386.776 646.984 355.311C673.878 323.847 704.702 292.658 712.612 251.796C720.522 210.934 692.672 158.065 648.744 155.564C593.237 152.409 564.462 226.044 509.052 225.513C469.203 225.131 440.134 187.318 406.454 164.509C342.348 121.116 245.988 138.458 209.65 199.931C196.892 221.52 192.465 246.852 195.058 272.175V272.175Z" stroke="white" stroke-opacity="0.1" stroke-width="1.34303" stroke-miterlimit="10" stroke-linecap="round" stroke-linejoin="round"/>
</svg>
