<svg width="116" height="32" viewBox="0 0 116 32" fill="none" xmlns="http://www.w3.org/2000/svg">
<path d="M34.7925 20.6477C35.7037 20.6477 36.7351 20.4758 37.887 20.1319V18.5847H34.1478C33.89 18.5847 33.6751 18.6707 33.5032 18.8426C33.3313 19.0145 33.2453 19.2294 33.2453 19.4873V19.7451C33.2453 20.003 33.3313 20.2179 33.5032 20.3898C33.6751 20.5617 33.89 20.6477 34.1478 20.6477H34.7925ZM30.0219 10.5907C33.1679 10.2469 36.0045 10.075 38.5316 10.075C39.7007 10.075 40.6376 10.4274 41.3424 11.1323C42.0473 11.8371 42.3997 12.774 42.3997 13.9431V24H38.4027L38.1448 22.7106C37.3368 23.2436 36.5031 23.639 35.6435 23.8969C34.8011 24.1375 34.0877 24.2579 33.5032 24.2579H32.6006C31.4316 24.2579 30.4947 23.9054 29.7898 23.2006C29.085 22.4958 28.7326 21.5588 28.7326 20.3898V19.2294C28.7326 18.0604 29.085 17.1235 29.7898 16.4186C30.4947 15.7138 31.4316 15.3613 32.6006 15.3613H37.887V14.3299C37.887 14.072 37.801 13.8571 37.6291 13.6852C37.4572 13.5133 37.2423 13.4273 36.9844 13.4273C35.867 13.4273 34.6292 13.4789 33.2711 13.582C31.9302 13.6852 30.8471 13.7625 30.0219 13.8141V10.5907ZM53.1003 10.3329H57.8709L52.7135 24H47.5561L42.3987 10.3329H47.1693L50.1348 19.6162L53.1003 10.3329ZM63.3003 20.6477C64.2114 20.6477 65.2429 20.4758 66.3947 20.1319V18.5847H62.6556C62.3977 18.5847 62.1828 18.6707 62.0109 18.8426C61.839 19.0145 61.7531 19.2294 61.7531 19.4873V19.7451C61.7531 20.003 61.839 20.2179 62.0109 20.3898C62.1828 20.5617 62.3977 20.6477 62.6556 20.6477H63.3003ZM58.5297 10.5907C61.6757 10.2469 64.5123 10.075 67.0394 10.075C68.2084 10.075 69.1453 10.4274 69.8502 11.1323C70.555 11.8371 70.9075 12.774 70.9075 13.9431V24H66.9105L66.6526 22.7106C65.8446 23.2436 65.0108 23.639 64.1513 23.8969C63.3089 24.1375 62.5954 24.2579 62.0109 24.2579H61.1084C59.9394 24.2579 59.0024 23.9054 58.2976 23.2006C57.5928 22.4958 57.2403 21.5588 57.2403 20.3898V19.2294C57.2403 18.0604 57.5928 17.1235 58.2976 16.4186C59.0024 15.7138 59.9394 15.3613 61.1084 15.3613H66.3947V14.3299C66.3947 14.072 66.3088 13.8571 66.1369 13.6852C65.9649 13.5133 65.75 13.4273 65.4922 13.4273C64.3747 13.4273 63.137 13.4789 61.7788 13.582C60.4379 13.6852 59.3549 13.7625 58.5297 13.8141V10.5907ZM79.668 24C78.5162 24.1719 77.4159 24.2579 76.3673 24.2579C75.3358 24.2579 74.4676 23.9054 73.7628 23.2006C73.0579 22.4958 72.7055 21.5588 72.7055 20.3898V5.94908H77.2182V19.7451C77.2182 20.003 77.3042 20.2179 77.4761 20.3898C77.648 20.5617 77.8629 20.6477 78.1208 20.6477H79.668V24ZM94.8783 20.1319C94.8783 21.4213 94.5087 22.4356 93.7695 23.1748C93.0474 23.8969 92.0417 24.2579 90.7524 24.2579H84.8214C83.532 24.2579 82.5177 23.8969 81.7785 23.1748C81.0565 22.4356 80.6954 21.4213 80.6954 20.1319V14.2009C80.6954 12.9116 81.0565 11.9059 81.7785 11.1838C82.5177 10.4446 83.532 10.075 84.8214 10.075H90.7524C92.0417 10.075 93.0474 10.4446 93.7695 11.1838C94.5087 11.9059 94.8783 12.9116 94.8783 14.2009V20.1319ZM90.3656 14.5877C90.3656 13.9001 90.0218 13.5563 89.3341 13.5563H86.2397C85.552 13.5563 85.2082 13.9001 85.2082 14.5877V19.7451C85.2082 20.4328 85.552 20.7766 86.2397 20.7766H89.3341C90.0218 20.7766 90.3656 20.4328 90.3656 19.7451V14.5877ZM104.288 13.8141C103.376 13.8141 102.345 13.986 101.193 14.3299V24H96.6804V10.3329H100.677L100.935 11.6222C101.743 11.0893 102.568 10.7025 103.411 10.4618C104.27 10.2039 104.992 10.075 105.577 10.075H106.737C107.906 10.075 108.843 10.4274 109.548 11.1323C110.253 11.8371 110.605 12.774 110.605 13.9431V24H106.093V14.7167C106.093 14.4588 106.007 14.2439 105.835 14.072C105.663 13.9001 105.448 13.8141 105.19 13.8141H104.288Z" fill="#7666F6"/>
<path d="M23.3442 20.6108L23.5119 20.8934C23.8334 21.4391 24.005 22.0601 24.0091 22.6935C24.0133 23.3269 23.8499 23.9502 23.5355 24.5001C23.2211 25.05 22.7669 25.5069 22.2189 25.8247C21.671 26.1424 21.0487 26.3096 20.4153 26.3093H3.59268C2.95937 26.3094 2.33729 26.142 1.7895 25.8242C1.24171 25.5064 0.787685 25.0494 0.473434 24.4995C0.159183 23.9497 -0.00411889 23.3265 7.89359e-05 22.6932C0.00427676 22.0599 0.175826 21.439 0.497338 20.8934L5.90611 11.7163C6.40544 15.0212 8.47339 17.6855 11.4023 17.6855C14.6916 17.6855 19.437 18.3273 23.3442 20.6108Z" fill="#7666F6"/>
<path d="M21.3412 17.2113C18.9008 16.0378 14.9745 15.2907 11.4025 15.2907C9.21364 15.2907 7.86893 11.5032 7.49414 9.02213L8.9095 6.6189C9.22683 6.08009 9.6793 5.63345 10.2222 5.32314C10.7651 5.01283 11.3795 4.84961 12.0048 4.84961C12.6302 4.84961 13.2446 5.01283 13.7875 5.32314C14.3304 5.63345 14.7829 6.08009 15.1002 6.6189L21.3412 17.2113Z" fill="#57DAB9"/>
</svg>
