<svg width="30" height="30" viewBox="0 0 30 30" fill="none" xmlns="http://www.w3.org/2000/svg">
<g clip-path="url(#clip0_1351_6930)">
<path d="M20.1656 12.7594C20.1469 12.7219 20.1188 12.6751 20.1 12.6376C20.1 12.6282 20.0906 12.6282 20.0906 12.6188C19.5028 11.3717 18.4756 10.3854 17.2057 9.84867C15.9358 9.31197 14.5126 9.26266 13.2086 9.71019C11.9046 10.1577 10.8116 11.0706 10.1389 12.274C9.46618 13.4774 9.26113 14.8867 9.56301 16.2319C9.86488 17.5771 10.6524 18.7636 11.7748 19.5642C12.8972 20.3647 14.2755 20.723 15.6457 20.5705C17.0159 20.4179 18.2816 19.7651 19.2004 18.7373C20.1192 17.7094 20.6265 16.3787 20.625 15.0001C20.624 14.2299 20.4678 13.4678 20.1656 12.7594Z" fill="#3F56B6"/>
<path d="M15.9375 7.55635V0.975098C18.2551 1.12952 20.4984 1.856 22.4665 3.08957C24.4347 4.32314 26.0663 6.02532 27.2156 8.04385L21.3375 10.997C20.7464 10.0611 19.9559 9.2674 19.0224 8.67262C18.0889 8.07783 17.0355 7.69665 15.9375 7.55635Z" fill="#3F56B6"/>
<path d="M19.5937 20.9251L24.2531 25.5751C22.5733 27.046 20.5672 28.0955 18.4011 28.6368C16.2349 29.1781 13.971 29.1956 11.7967 28.6877C9.62245 28.1799 7.60044 27.1615 5.89814 25.7167C4.19583 24.2719 2.8622 22.4424 2.00769 20.3796C1.15318 18.3168 0.802366 16.0801 0.984309 13.8548C1.16625 11.6294 1.87571 9.47945 3.05394 7.58287C4.23217 5.68628 5.84527 4.09767 7.75965 2.94858C9.67403 1.79949 11.8346 1.12299 14.0625 0.975098V7.55635C12.9172 7.69988 11.8205 8.10578 10.8577 8.74246C9.89496 9.37914 9.09212 10.2294 8.51169 11.2271C7.93126 12.2248 7.5889 13.343 7.51127 14.4946C7.43365 15.6462 7.62284 16.8002 8.06412 17.8668C8.5054 18.9333 9.18687 19.8837 10.0555 20.6438C10.9241 21.4039 11.9564 21.9533 13.0721 22.2493C14.1877 22.5452 15.3566 22.5797 16.4878 22.35C17.6189 22.1203 18.6818 21.6327 19.5937 20.9251V20.9251Z" fill="#3F56B6"/>
<path d="M29.0625 15.0001C29.0678 18.4067 27.8275 21.6976 25.575 24.2532L20.925 19.5938C21.6747 18.6299 22.1769 17.4971 22.3877 16.2942C22.5985 15.0914 22.5116 13.8553 22.1344 12.6938L28.0406 9.74072C28.7171 11.4116 29.0641 13.1975 29.0625 15.0001Z" fill="#3F56B6"/>
</g>
<defs>
<clipPath id="clip0_1351_6930">
<rect width="30" height="30" fill="white"/>
</clipPath>
</defs>
</svg>
