<svg width="110" height="28" viewBox="0 0 110 28" fill="none" xmlns="http://www.w3.org/2000/svg">
<g clip-path="url(#clip0_1_36220)">
<path d="M0.853516 0.604248V21.6706L18.7088 27.7035L36.5155 21.6706V0.604248H0.853516Z" fill="#D62A43"/>
<path d="M18.6607 20.9893H13.2117V19.0919H13.163C12.0927 20.6001 10.5844 21.3299 8.34644 21.3299C5.67057 21.3299 3.28662 19.7244 3.28662 16.3187V6.15045H8.93026V13.9348C8.93026 15.6376 9.12487 16.8539 10.779 16.8539C11.7521 16.8539 13.017 16.3674 13.017 13.9834V6.15045H18.6607V20.9893ZM29.2182 10.4805C29.1695 9.99396 28.9263 9.60474 28.5371 9.36148C28.1965 9.06957 27.7586 8.92362 27.2721 8.92362C26.4937 8.92362 25.5693 9.11822 25.5693 10.0426C25.5693 10.4805 25.9099 10.6751 26.2504 10.821C27.1748 11.2103 29.3155 11.3562 31.2129 11.94C33.1104 12.5239 34.7645 13.6429 34.7645 16.0755C34.7645 20.2109 30.8237 21.2812 27.2235 21.2812C23.7205 21.2812 19.9256 19.8703 19.8283 16.0755H25.2287C25.2774 16.6106 25.472 16.9999 25.9099 17.3891C26.2018 17.6323 26.7369 17.8269 27.4181 17.8269C28.1478 17.8269 29.3155 17.535 29.3155 16.708C29.3155 15.8322 28.829 15.589 26.2018 15.1511C21.8717 14.4213 20.1689 13.059 20.1689 10.4805C20.1689 6.73427 24.207 5.76123 27.1748 5.76123C30.3858 5.76123 34.2294 6.63696 34.3753 10.4318H29.2182V10.4805Z" fill="white"/>
<path d="M38.5591 0.604248H44.2027V7.80476H44.2514C45.1271 6.5398 46.6353 5.81002 48.2895 5.81002C53.252 5.81002 54.6143 10.0428 54.6143 13.4971C54.6143 17.1946 52.5709 21.33 48.3868 21.33C45.6136 21.33 44.7379 20.2597 44.0568 19.3353H44.0081V20.9408H38.5591V0.604248ZM46.4894 9.8968C44.446 9.8968 44.0081 11.7942 44.0081 13.5457C44.0081 15.2972 44.446 17.2433 46.4894 17.2433C48.5328 17.2433 48.9706 15.3458 48.9706 13.5457C48.9706 11.8429 48.4841 9.8968 46.4894 9.8968ZM70.3776 17.6811C70.3776 18.8001 70.4262 20.0651 71.0587 20.9895H65.2691C65.1231 20.6003 65.0258 19.9678 65.0745 19.5786H65.0258C63.8095 20.9408 62.1067 21.33 60.2579 21.33C57.3875 21.33 55.0522 19.9678 55.0522 16.854C55.0522 12.1834 60.5498 12.3294 63.4203 11.7942C64.1987 11.6483 64.9772 11.405 64.9772 10.4806C64.9772 9.45893 64.0528 9.11836 63.1284 9.11836C61.3769 9.11836 61.0364 9.9941 61.0364 10.6266H55.7819C55.9765 6.4425 59.9174 5.76137 63.4203 5.76137C70.5235 5.76137 70.4262 8.6805 70.4262 11.551V17.6811H70.3776ZM64.9772 14.3241C64.2961 14.6647 63.5176 14.8593 62.7392 15.0539C61.4742 15.3458 60.8417 15.6377 60.8417 16.6594C60.8417 17.3406 61.5715 18.0217 62.5932 18.0217C63.8582 18.0217 64.8799 17.2433 64.9772 15.6864V14.3241ZM72.421 6.15059H77.87V8.04802H77.9186C78.989 6.5398 80.4972 5.81002 82.7352 5.81002C85.4111 5.81002 87.8437 7.41554 87.8437 10.8212V20.9895H82.1514V13.2051C82.1514 11.5023 81.9568 10.286 80.3026 10.286C79.3296 10.286 78.0646 10.7725 78.0646 13.1565V20.9895H72.421V6.15059ZM89.8384 0.604248H95.4821V10.432L99.0823 6.15059H105.456L100.153 11.7456L106.283 20.9895H99.4715L96.4551 15.6377L95.4334 16.7081V20.9895H89.7898V0.604248H89.8384ZM108.813 18.9461C109.007 19.1407 109.153 19.4326 109.153 19.7245C109.153 20.0164 109.056 20.3083 108.813 20.503C108.618 20.6976 108.326 20.8435 108.034 20.8435C107.742 20.8435 107.45 20.7462 107.256 20.503C107.061 20.3083 106.915 20.0164 106.915 19.7245C106.915 19.4326 107.013 19.1407 107.256 18.9461C107.45 18.7515 107.742 18.6055 108.034 18.6055C108.326 18.6542 108.618 18.7515 108.813 18.9461ZM108.959 18.8488C108.715 18.6055 108.424 18.4596 108.034 18.4596C107.694 18.4596 107.402 18.6055 107.11 18.8488C106.867 19.092 106.721 19.384 106.721 19.7732C106.721 20.1137 106.867 20.4543 107.11 20.6976C107.353 20.9408 107.645 21.0868 108.034 21.0868C108.375 21.0868 108.667 20.9408 108.959 20.6976C109.202 20.4543 109.348 20.1624 109.348 19.7732C109.299 19.384 109.202 19.092 108.959 18.8488ZM108.229 19.6759C108.18 19.6759 108.083 19.7245 107.986 19.7245H107.742V19.238H107.937C108.083 19.238 108.18 19.238 108.229 19.2866C108.278 19.3353 108.326 19.384 108.326 19.4813C108.375 19.5786 108.326 19.6272 108.229 19.6759ZM107.499 20.4543H107.742V19.9191H107.937C108.083 19.9191 108.18 19.9191 108.229 19.9678C108.326 20.0164 108.375 20.1137 108.375 20.3083V20.4543H108.618V20.1624C108.618 20.1137 108.569 20.0164 108.521 19.9678C108.472 19.8705 108.375 19.8705 108.278 19.8218C108.375 19.8218 108.424 19.7732 108.472 19.7732C108.569 19.7245 108.618 19.6272 108.618 19.4813C108.618 19.2867 108.569 19.1893 108.424 19.1407C108.326 19.092 108.229 19.092 108.034 19.092H107.548V20.4543H107.499Z" fill="#1B3281"/>
</g>
<defs>
<clipPath id="clip0_1_36220">
<rect width="108.356" height="27.0889" fill="white" transform="translate(0.922852 0.609375)"/>
</clipPath>
</defs>
</svg>
