<svg width="845" height="182" viewBox="0 0 845 182" fill="none" xmlns="http://www.w3.org/2000/svg">
<g clip-path="url(#clip0_223_3731)">
<path d="M670.422 79.9791V70.4988C670.422 58.7985 666.858 50.1923 659.731 44.6784C652.738 39.0299 643.122 36.2061 630.885 36.2061C623.623 36.2061 617.101 37.1471 611.318 39.0299C605.536 40.7781 600.896 42.6609 597.4 44.6784C594.576 46.4266 592.558 48.2417 591.348 50.1246C590.272 51.8727 589.734 54.1588 589.734 56.9834V79.9791V91.0737V125.77C589.734 128.325 590.474 130.208 591.953 131.418C593.432 132.494 595.584 133.032 598.408 133.032C600.022 133.032 601.502 132.83 602.846 132.427C604.191 132.158 605.199 131.888 605.872 131.62V91.0737V79.9791V56.1763C608.831 54.4281 612.394 52.8815 616.563 51.5365C620.732 50.1923 625.506 49.5198 630.885 49.5198C638.013 49.5198 643.661 51.268 647.83 54.7643C652.133 58.2607 654.285 63.7746 654.285 71.3051V79.9791V91.0737V125.77C654.285 128.325 654.957 130.208 656.301 131.418C657.781 132.494 660 133.032 662.959 133.032C664.438 133.032 665.85 132.83 667.195 132.427C668.674 132.158 669.75 131.888 670.422 131.62V91.0737V79.9791Z" fill="#24262E"/>
<path d="M426.896 132.243C424.341 132.243 422.189 131.435 420.44 129.822C418.827 128.074 418.02 125.922 418.02 123.367V10H434.561V118.123H492.454C493.127 118.66 493.665 119.535 494.069 120.745C494.472 121.955 494.673 123.3 494.673 124.779C494.673 127.065 494.069 128.881 492.858 130.225C491.648 131.57 490.034 132.243 488.017 132.243H426.896Z" fill="#24262E"/>
<path d="M408.224 85.6448C408.224 95.596 406.341 104.27 402.576 111.667C398.81 119.063 393.498 124.778 386.64 128.812C379.782 132.847 371.712 134.864 362.434 134.864C353.154 134.864 345.019 132.847 338.025 128.812C331.167 124.778 325.855 119.063 322.089 111.667C318.324 104.27 316.441 95.596 316.441 85.6448C316.441 75.5589 318.324 66.8849 322.089 59.6229C325.989 52.2262 331.369 46.5107 338.227 42.4765C345.22 38.4423 353.289 36.4248 362.434 36.4248C371.578 36.4248 379.58 38.4423 386.438 42.4765C393.297 46.5107 398.608 52.2262 402.374 59.6229C406.274 66.8849 408.224 75.5589 408.224 85.6448ZM362.434 49.7386C353.423 49.7386 346.229 52.9656 340.85 59.4213C335.604 65.7415 332.982 74.4824 332.982 85.6448C332.982 96.941 335.538 105.75 340.647 112.07C345.893 118.39 353.154 121.551 362.434 121.551C371.578 121.551 378.706 118.39 383.816 112.07C389.06 105.615 391.682 96.8064 391.682 85.6448C391.682 74.4824 389.06 65.7415 383.816 59.4213C378.706 52.9656 371.578 49.7386 362.434 49.7386Z" fill="#24262E"/>
<path fill-rule="evenodd" clip-rule="evenodd" d="M266.907 129.418C259.107 129.418 251.912 127.938 245.323 124.98C238.733 121.887 233.422 116.911 229.388 110.052C225.353 103.194 223.336 94.1172 223.336 82.8201C223.336 72.6004 225.286 64.0602 229.185 57.2022C233.22 50.3433 238.733 45.1657 245.727 41.6694C252.72 38.173 260.721 36.4248 269.731 36.4248C275.918 36.4248 281.565 37.232 286.676 38.8455C291.921 40.3252 296.291 42.2072 299.787 44.494C301.805 45.8382 303.418 47.3848 304.629 49.133C305.974 50.7473 306.646 52.764 306.646 55.1847V114.087V117.516V136.276C306.646 145.152 304.696 152.28 300.796 157.659C297.03 163.038 291.786 166.938 285.062 169.358C278.472 171.779 271.009 172.989 262.671 172.989C255.947 172.989 250.164 172.25 245.323 170.77C240.482 169.291 237.188 168.081 235.439 167.139C231.404 164.853 229.388 161.962 229.388 158.465C229.388 156.582 229.791 154.969 230.598 153.624C231.539 152.413 232.682 151.472 234.027 150.8C236.851 152.952 240.818 154.902 245.928 156.65C251.173 158.533 256.754 159.474 262.671 159.474C271.681 159.474 278.54 157.524 283.247 153.624C288.088 149.724 290.509 143.606 290.509 135.268V122.549C288.573 124.033 286.018 125.449 282.843 126.796C278.54 128.544 273.228 129.418 266.907 129.418ZM281.835 51.5537C285.331 52.6293 288.223 53.9074 290.509 55.3863V107.686C288.522 109.62 286.034 111.418 283.045 113.079C279.414 115.095 274.64 116.104 268.722 116.104C260.519 116.104 253.594 113.549 247.946 108.439C242.432 103.329 239.675 94.7219 239.675 82.6185C239.675 71.7255 242.432 63.5224 247.946 58.0085C253.459 52.4955 260.721 49.7386 269.731 49.7386C274.438 49.7386 278.472 50.3433 281.835 51.5537Z" fill="#24262E"/>
<path fill-rule="evenodd" clip-rule="evenodd" d="M539.315 132.544C531.34 132.544 523.985 131.025 517.249 127.985C510.511 124.808 505.081 119.697 500.957 112.652C496.832 105.607 494.77 96.283 494.77 84.679C494.77 74.181 496.763 65.4091 500.75 58.3641C504.875 51.3192 510.511 46.0012 517.661 42.4093C524.81 38.8175 532.99 37.022 542.201 37.022C548.526 37.022 554.3 37.8512 559.524 39.5088C564.886 41.0276 569.354 42.9619 572.929 45.3099C574.992 46.6916 576.641 48.2799 577.878 50.0762C579.253 51.7338 579.941 53.806 579.941 56.2919V120.319V132.544C579.941 132.544 567.232 135.713 564.68 129.85C563.579 127.32 563.442 125.489 563.442 125.489C561.463 127.013 558.852 128.467 555.606 129.85C551.207 131.646 545.776 132.544 539.315 132.544ZM563.442 56.4992V110.221C561.411 112.208 558.868 114.054 555.812 115.76C552.1 117.832 547.22 118.868 541.171 118.868C532.784 118.868 525.704 116.243 519.93 110.995C514.293 105.745 511.474 96.9049 511.474 84.4726C511.474 73.2832 514.293 64.8565 519.93 59.1933C525.566 53.5293 532.99 50.6973 542.201 50.6973C547.013 50.6973 551.138 51.3192 554.575 52.5622C558.15 53.6672 561.106 54.9796 563.442 56.4992Z" fill="#24262E"/>
<path fill-rule="evenodd" clip-rule="evenodd" d="M775.141 108.231L823.043 69.2069C824.949 67.7544 826.159 66.1787 826.68 64.4789C827.136 62.6655 826.616 60.5135 825.11 58.0223C821.016 51.228 815.865 46.1463 809.665 42.7755C803.505 39.2239 796.872 37.5762 789.767 37.8322C782.773 38.0203 775.812 40.1906 768.891 44.344C763.444 47.6124 758.974 51.6041 755.481 56.3209C751.916 60.9241 749.489 66.0018 748.199 71.5549C747.022 77.0391 747.006 82.9083 748.151 89.1609C749.337 95.2325 755.915 107.43 755.915 107.43C755.915 107.43 745.502 114.938 741.496 116.633C737.491 118.328 733.145 119.478 727.733 119.478C718.757 119.478 711.3 116.445 705.36 110.38C699.42 104.314 696.45 95.611 696.45 84.2704C696.45 73.0618 699.288 64.4252 704.964 58.3592C710.772 52.2931 718.362 49.2601 727.733 49.2601C733.277 49.2601 738.5 50.5 740.295 51.411C740.295 51.411 752 45.0905 746.303 41.4076C742.089 38.6839 735.92 36.2061 727.733 36.2061C718.626 36.2061 710.442 37.9202 703.182 41.3486C696.054 44.909 690.444 50.2492 686.353 57.37C682.261 64.4908 680.215 73.4579 680.215 84.2704C680.215 94.9516 682.326 103.852 686.551 110.973C690.775 118.226 696.45 123.633 703.578 127.192C710.838 130.885 718.757 132.731 727.337 132.731C735.52 132.731 741.496 130.891 746.303 128.637C751.51 126.489 759.921 121.035 763.125 117.834C766.652 121.821 770.683 125.544 774.788 127.985C782.062 132.102 789.832 133.84 798.091 133.197C806.47 132.486 815.034 129.51 823.773 124.268C828.764 121.272 832.905 118.017 836.198 114.501C839.602 110.917 841.949 107.505 843.239 104.264C844.577 100.841 844.601 98.0539 843.303 95.9019C842.486 94.5439 841.373 93.5932 839.963 93.0506C838.601 92.3263 837.055 91.943 835.325 91.899C834.147 95.0729 832.104 98.6093 829.204 102.51C826.305 106.41 822.467 109.79 817.701 112.649C808.729 118.028 800.238 119.962 792.219 118.451C786.035 117.138 780.292 113.699 775.141 108.231ZM810.738 63.4057C806.533 57.4509 801.31 53.6488 795.062 52.0002C788.741 50.2388 782.181 51.4008 775.371 55.4862C768.338 59.7077 764.028 65.7617 762.442 73.6484C760.944 81.1493 762.604 89.1224 767.931 98.2271L810.738 63.4057Z" fill="#24262E"/>
<path fill-rule="evenodd" clip-rule="evenodd" d="M176.407 32.0227C176.897 22.876 173.267 13.6128 165.761 7.22475C153.001 -3.63491 133.871 -2.07457 123.032 10.7097C118.766 15.7402 116.421 21.7589 115.922 27.8712C115.161 34.302 115.903 40.7343 116.745 48.0242C117.955 58.5152 119.371 70.7803 116.806 87.3674C114.685 101.079 108.805 112.5 103.483 122.839C99.7335 130.125 96.2609 136.872 94.5743 143.504C91.5216 154.551 94.8727 166.866 104.166 174.776C116.926 185.634 136.056 184.075 146.895 171.291C150.904 166.562 153.217 160.96 153.895 155.229C155.206 147.058 154.296 138.209 153.339 128.9C152.168 117.504 150.925 105.419 153.597 93.0431C157.177 76.4539 162.667 66.2571 167.377 57.5057C171.366 50.0949 174.797 43.7208 176.039 35.3808C176.216 34.3145 176.335 33.2416 176.399 32.1672C176.402 32.12 176.405 32.0728 176.408 32.0249L176.407 32.0227Z" fill="url(#paint0_linear_223_3731)"/>
<path fill-rule="evenodd" clip-rule="evenodd" d="M159.857 57.1908C168.001 53.0627 174.188 45.3196 175.955 35.6593C178.959 19.2374 168.055 3.49472 151.601 0.497057C145.125 -0.683572 138.754 0.286885 133.224 2.89961C127.294 5.44227 122.11 9.28356 116.237 13.6366C107.783 19.9018 97.8976 27.2268 82.2925 33.2656C69.3933 38.2573 56.5929 38.8642 45.0055 39.4128C36.8338 39.8007 29.2655 40.1591 22.6929 42.0078C11.6368 44.8735 2.68431 53.8923 0.497708 65.8453C-2.50622 82.2672 8.39704 98.0099 24.8513 101.008C30.9406 102.117 36.9369 101.326 42.2266 99.0563C49.9333 96.1213 57.1176 90.935 64.6763 85.478C73.9313 78.7961 83.7472 71.7101 95.7686 67.8585C111.883 62.6958 123.431 62.361 133.341 62.0748C141.737 61.8307 148.959 61.622 156.788 58.5396C157.789 58.1642 158.768 57.7365 159.72 57.2601C159.765 57.238 159.811 57.2166 159.856 57.1945L159.857 57.1908Z" fill="url(#paint1_linear_223_3731)"/>
<path fill-rule="evenodd" clip-rule="evenodd" d="M107.631 176.94C115.309 181.94 125.152 183.424 134.447 180.104C150.248 174.461 158.483 157.078 152.839 141.278C150.622 135.069 146.592 130.03 141.558 126.54C136.363 122.655 130.412 120.079 123.666 117.158C113.971 112.963 102.637 108.057 89.5543 97.5353C78.7397 88.8382 71.791 78.0235 65.5012 68.2333C61.0715 61.3389 56.9682 54.9524 52.0712 50.1734C44.0319 41.9951 31.6808 38.741 20.1698 42.8515C4.36941 48.4944 -3.86495 65.8776 1.77811 81.6777C3.8649 87.5211 7.55735 92.3288 12.1816 95.7834C18.6031 101.008 26.7249 104.645 35.2705 108.471C45.7284 113.153 56.8201 118.119 66.2021 126.627C78.7787 138.03 84.8614 147.894 90.0819 156.359C94.4918 163.51 98.2863 169.663 104.861 174.904C105.724 175.617 106.626 176.282 107.558 176.893C107.582 176.909 107.606 176.925 107.629 176.94H107.631Z" fill="url(#paint2_linear_223_3731)"/>
</g>
<defs>
<linearGradient id="paint0_linear_223_3731" x1="112.297" y1="23.8273" x2="98.5696" y2="185.54" gradientUnits="userSpaceOnUse">
<stop stop-color="#222D56"/>
<stop offset="1" stop-color="#4163DD"/>
</linearGradient>
<linearGradient id="paint1_linear_223_3731" x1="177.324" y1="36.3584" x2="-12.6794" y2="74.3317" gradientUnits="userSpaceOnUse">
<stop stop-color="#3F56B6"/>
<stop offset="1" stop-color="#344384"/>
</linearGradient>
<linearGradient id="paint2_linear_223_3731" x1="147.307" y1="171.26" x2="7.31457" y2="51.6911" gradientUnits="userSpaceOnUse">
<stop stop-color="#4B66D6"/>
<stop offset="1" stop-color="#3B4EA1"/>
</linearGradient>
<clipPath id="clip0_223_3731">
<rect width="844.26" height="182" fill="white"/>
</clipPath>
</defs>
</svg>
